<mxfile host="app.diagrams.net" agent="Mozilla/5.0 (X11; Linux x86_64) AppleWebKit/537.36 (KHTML, like Gecko) Chrome/132.0.0.0 Safari/537.36" version="26.0.10">
  <diagram name="Page-1" id="nvSvJ3ifTDuHEoo-3X3u">
    <mxGraphModel dx="1147" dy="603" grid="1" gridSize="10" guides="1" tooltips="1" connect="1" arrows="1" fold="1" page="1" pageScale="1" pageWidth="850" pageHeight="1100" math="0" shadow="0">
      <root>
        <mxCell id="0" />
        <mxCell id="1" parent="0" />
        <mxCell id="xl-uUjp_c_oqzB3Sv7om-2" value="" style="rounded=1;whiteSpace=wrap;html=1;" vertex="1" parent="1">
          <mxGeometry x="160" y="560" width="270" height="220" as="geometry" />
        </mxCell>
        <mxCell id="xl-uUjp_c_oqzB3Sv7om-3" value="Router&lt;div&gt;&lt;br&gt;&lt;/div&gt;" style="text;html=1;align=center;verticalAlign=middle;whiteSpace=wrap;rounded=0;" vertex="1" parent="1">
          <mxGeometry x="170" y="570" width="60" height="30" as="geometry" />
        </mxCell>
        <mxCell id="xl-uUjp_c_oqzB3Sv7om-4" value="" style="rounded=1;whiteSpace=wrap;html=1;" vertex="1" parent="1">
          <mxGeometry x="170" y="590" width="250" height="180" as="geometry" />
        </mxCell>
        <mxCell id="xl-uUjp_c_oqzB3Sv7om-5" value="Pipeline" style="text;html=1;align=center;verticalAlign=middle;whiteSpace=wrap;rounded=0;" vertex="1" parent="1">
          <mxGeometry x="170" y="590" width="60" height="30" as="geometry" />
        </mxCell>
        <mxCell id="xl-uUjp_c_oqzB3Sv7om-6" value="" style="rounded=1;whiteSpace=wrap;html=1;" vertex="1" parent="1">
          <mxGeometry x="180" y="630" width="230" height="130" as="geometry" />
        </mxCell>
        <mxCell id="xl-uUjp_c_oqzB3Sv7om-7" value="Controller&amp;nbsp;" style="text;html=1;align=center;verticalAlign=middle;whiteSpace=wrap;rounded=0;" vertex="1" parent="1">
          <mxGeometry x="170" y="630" width="100" height="30" as="geometry" />
        </mxCell>
        <mxCell id="xl-uUjp_c_oqzB3Sv7om-11" value="root.html.heex&lt;div&gt;&lt;br&gt;&lt;/div&gt;" style="text;html=1;align=center;verticalAlign=middle;whiteSpace=wrap;rounded=0;" vertex="1" parent="1">
          <mxGeometry x="200" y="610" width="60" height="30" as="geometry" />
        </mxCell>
        <mxCell id="xl-uUjp_c_oqzB3Sv7om-13" value="&lt;div&gt;app.html.eex&lt;/div&gt;" style="text;html=1;align=center;verticalAlign=middle;whiteSpace=wrap;rounded=0;" vertex="1" parent="1">
          <mxGeometry x="185" y="650" width="90" height="30" as="geometry" />
        </mxCell>
        <mxCell id="xl-uUjp_c_oqzB3Sv7om-15" value="" style="rounded=1;whiteSpace=wrap;html=1;" vertex="1" parent="1">
          <mxGeometry x="150" y="330" width="270" height="220" as="geometry" />
        </mxCell>
        <mxCell id="xl-uUjp_c_oqzB3Sv7om-16" value="Router&lt;div&gt;&lt;br&gt;&lt;/div&gt;" style="text;html=1;align=center;verticalAlign=middle;whiteSpace=wrap;rounded=0;" vertex="1" parent="1">
          <mxGeometry x="160" y="340" width="60" height="30" as="geometry" />
        </mxCell>
        <mxCell id="xl-uUjp_c_oqzB3Sv7om-17" value="" style="rounded=1;whiteSpace=wrap;html=1;" vertex="1" parent="1">
          <mxGeometry x="160" y="360" width="250" height="180" as="geometry" />
        </mxCell>
        <mxCell id="xl-uUjp_c_oqzB3Sv7om-18" value="Pipeline" style="text;html=1;align=center;verticalAlign=middle;whiteSpace=wrap;rounded=0;" vertex="1" parent="1">
          <mxGeometry x="160" y="360" width="60" height="30" as="geometry" />
        </mxCell>
        <mxCell id="xl-uUjp_c_oqzB3Sv7om-19" value="" style="rounded=1;whiteSpace=wrap;html=1;" vertex="1" parent="1">
          <mxGeometry x="170" y="400" width="230" height="130" as="geometry" />
        </mxCell>
        <mxCell id="xl-uUjp_c_oqzB3Sv7om-20" value="Live Session" style="text;html=1;align=center;verticalAlign=middle;whiteSpace=wrap;rounded=0;" vertex="1" parent="1">
          <mxGeometry x="160" y="400" width="100" height="30" as="geometry" />
        </mxCell>
        <mxCell id="xl-uUjp_c_oqzB3Sv7om-21" value="root.html.heex&lt;div&gt;&lt;br&gt;&lt;/div&gt;" style="text;html=1;align=center;verticalAlign=middle;whiteSpace=wrap;rounded=0;" vertex="1" parent="1">
          <mxGeometry x="190" y="380" width="60" height="30" as="geometry" />
        </mxCell>
        <mxCell id="xl-uUjp_c_oqzB3Sv7om-22" value="&lt;div&gt;live.html.heex&lt;/div&gt;" style="text;html=1;align=center;verticalAlign=middle;whiteSpace=wrap;rounded=0;" vertex="1" parent="1">
          <mxGeometry x="190" y="410" width="60" height="30" as="geometry" />
        </mxCell>
        <mxCell id="xl-uUjp_c_oqzB3Sv7om-23" value="&lt;div&gt;&lt;br&gt;&lt;/div&gt;" style="text;html=1;align=center;verticalAlign=middle;whiteSpace=wrap;rounded=0;" vertex="1" parent="1">
          <mxGeometry x="190" y="400" width="60" height="30" as="geometry" />
        </mxCell>
        <mxCell id="xl-uUjp_c_oqzB3Sv7om-25" value="" style="endArrow=classic;html=1;rounded=0;" edge="1" parent="1" source="xl-uUjp_c_oqzB3Sv7om-24">
          <mxGeometry width="50" height="50" relative="1" as="geometry">
            <mxPoint x="530" y="500" as="sourcePoint" />
            <mxPoint x="580" y="450" as="targetPoint" />
            <Array as="points">
              <mxPoint x="540" y="460" />
            </Array>
          </mxGeometry>
        </mxCell>
        <mxCell id="xl-uUjp_c_oqzB3Sv7om-26" value="" style="endArrow=classic;html=1;rounded=0;" edge="1" parent="1" source="xl-uUjp_c_oqzB3Sv7om-19" target="xl-uUjp_c_oqzB3Sv7om-24">
          <mxGeometry width="50" height="50" relative="1" as="geometry">
            <mxPoint x="400" y="463" as="sourcePoint" />
            <mxPoint x="580" y="450" as="targetPoint" />
            <Array as="points" />
          </mxGeometry>
        </mxCell>
        <mxCell id="xl-uUjp_c_oqzB3Sv7om-24" value="Browser" style="rounded=1;whiteSpace=wrap;html=1;" vertex="1" parent="1">
          <mxGeometry x="520" y="440" width="120" height="60" as="geometry" />
        </mxCell>
        <mxCell id="xl-uUjp_c_oqzB3Sv7om-27" value="Render" style="text;html=1;align=center;verticalAlign=middle;whiteSpace=wrap;rounded=0;" vertex="1" parent="1">
          <mxGeometry x="440" y="430" width="60" height="30" as="geometry" />
        </mxCell>
        <mxCell id="xl-uUjp_c_oqzB3Sv7om-28" value="LiveSocket Proxy" style="rounded=1;whiteSpace=wrap;html=1;" vertex="1" parent="1">
          <mxGeometry x="520" y="325" width="120" height="60" as="geometry" />
        </mxCell>
        <mxCell id="xl-uUjp_c_oqzB3Sv7om-29" value="" style="endArrow=classic;html=1;rounded=0;entryX=0.5;entryY=1;entryDx=0;entryDy=0;exitX=0.5;exitY=0;exitDx=0;exitDy=0;" edge="1" parent="1" source="xl-uUjp_c_oqzB3Sv7om-24" target="xl-uUjp_c_oqzB3Sv7om-28">
          <mxGeometry width="50" height="50" relative="1" as="geometry">
            <mxPoint x="490" y="540" as="sourcePoint" />
            <mxPoint x="540" y="490" as="targetPoint" />
          </mxGeometry>
        </mxCell>
        <mxCell id="xl-uUjp_c_oqzB3Sv7om-30" value="" style="endArrow=classic;html=1;rounded=0;entryX=0.974;entryY=0.591;entryDx=0;entryDy=0;exitX=0.983;exitY=0.572;exitDx=0;exitDy=0;exitPerimeter=0;entryPerimeter=0;" edge="1" parent="1" source="xl-uUjp_c_oqzB3Sv7om-28">
          <mxGeometry width="50" height="50" relative="1" as="geometry">
            <mxPoint x="646.12" y="360.46000000000004" as="sourcePoint" />
            <mxPoint x="639.9999999999999" y="475.46000000000004" as="targetPoint" />
            <Array as="points">
              <mxPoint x="730" y="360" />
              <mxPoint x="730" y="475" />
            </Array>
          </mxGeometry>
        </mxCell>
      </root>
    </mxGraphModel>
  </diagram>
</mxfile>
